HIERARCHY
ROOT Hips
{
	OFFSET 50.164200 8.374561 54.958698
	CHANNELS 6 Xposition Yposition Zposition Xrotation Yrotation Zrotation
	JOINT spine
	{
		OFFSET 0.000000 -0.342408 5.954380
		CHANNELS 3 Xrotation Yrotation Zrotation
		JOINT spine1
		{
			OFFSET 0.000000 -0.000002 8.856018
			CHANNELS 3 Xrotation Yrotation Zrotation
			JOINT spine2
			{
				OFFSET 0.000000 -0.000001 8.485672
				CHANNELS 3 Xrotation Yrotation Zrotation
				JOINT Neck
				{
					OFFSET 0.000000 -1.038704 21.786301
					CHANNELS 3 Xrotation Yrotation Zrotation
					JOINT Head
					{
						OFFSET 0.000000 -0.000001 6.582199
						CHANNELS 3 Xrotation Yrotation Zrotation
						End Site
						{
							OFFSET 0.000000 5.254357 15.932602
						}
					}
				}
				JOINT RightShoulder
				{
					OFFSET -3.573071 0.497523 9.163857
					CHANNELS 3 Xrotation Yrotation Zrotation
					JOINT RightArm
					{
						OFFSET 0.000000 -0.000002 12.019203
						CHANNELS 3 Xrotation Yrotation Zrotation
						JOINT RightArmRoll
						{
							OFFSET 0.000000 -0.000001 6.067551
							CHANNELS 3 Xrotation Yrotation Zrotation
							JOINT RightForeArm
							{
								OFFSET 0.000000 -0.000003 17.672600
								CHANNELS 3 Xrotation Yrotation Zrotation
								JOINT RightForeArmRoll
								{
									OFFSET 0.000000 -0.000001 6.808716
									CHANNELS 3 Xrotation Yrotation Zrotation
									JOINT RightHand
									{
										OFFSET 0.000000 -0.000003 13.663605
										CHANNELS 3 Xrotation Yrotation Zrotation
										End Site
										{
											OFFSET 0.000000 0.000000 0.100006
										}
									}
								}
							}
						}
					}
				}
				JOINT LeftShoulder
				{
					OFFSET 3.573071 0.497523 9.163857
					CHANNELS 3 Xrotation Yrotation Zrotation
					JOINT LeftArm
					{
						OFFSET 0.000000 -0.000002 12.019203
						CHANNELS 3 Xrotation Yrotation Zrotation
						JOINT LeftArmRoll
						{
							OFFSET 0.000000 -0.000001 6.067551
							CHANNELS 3 Xrotation Yrotation Zrotation
							JOINT LeftForeArm
							{
								OFFSET 0.000000 -0.000003 17.672600
								CHANNELS 3 Xrotation Yrotation Zrotation
								JOINT LeftForeArmRoll
								{
									OFFSET 0.000000 -0.000001 6.808731
									CHANNELS 3 Xrotation Yrotation Zrotation
									JOINT LeftHand
									{
										OFFSET 0.000000 -0.000003 13.663605
										CHANNELS 3 Xrotation Yrotation Zrotation
										End Site
										{
											OFFSET 0.000000 0.000000 0.100006
										}
									}
								}
							}
						}
					}
				}
			}
		}
	}
	JOINT RightUpLeg
	{
		OFFSET -5.277740 0.811858 -0.967796
		CHANNELS 3 Xrotation Yrotation Zrotation
		JOINT RightUpLegRoll
		{
			OFFSET 0.000000 -0.000003 16.021397
			CHANNELS 3 Xrotation Yrotation Zrotation
			JOINT RightLeg
			{
				OFFSET 0.000000 0.000003 -19.840099
				CHANNELS 3 Xrotation Yrotation Zrotation
				JOINT RightLegRoll
				{
					OFFSET 0.000000 -0.000003 19.905003
					CHANNELS 3 Xrotation Yrotation Zrotation
					JOINT RightFoot
					{
						OFFSET 0.000000 -0.000003 16.567497
						CHANNELS 3 Xrotation Yrotation Zrotation
						JOINT RightToeBase
						{
							OFFSET 0.000000 -0.000002 13.849602
							CHANNELS 3 Xrotation Yrotation Zrotation
							End Site
							{
								OFFSET 0.005871 0.773115 6.707283
							}
						}
					}
				}
			}
		}
	}
	JOINT LeftUpLeg
	{
		OFFSET 5.277740 0.811858 -0.967796
		CHANNELS 3 Xrotation Yrotation Zrotation
		JOINT LeftUpLegRoll
		{
			OFFSET 0.000000 -0.000003 16.021503
			CHANNELS 3 Xrotation Yrotation Zrotation
			JOINT LeftLeg
			{
				OFFSET 0.000000 -0.000003 19.839996
				CHANNELS 3 Xrotation Yrotation Zrotation
				JOINT LeftLegRoll
				{
					OFFSET 0.000000 -0.000004 20.089005
					CHANNELS 3 Xrotation Yrotation Zrotation
					JOINT LeftFoot
					{
						OFFSET 0.000000 -0.000003 16.383499
						CHANNELS 3 Xrotation Yrotation Zrotation
						JOINT LeftToeBase
						{
							OFFSET 0.000000 -0.000002 13.849594
							CHANNELS 3 Xrotation Yrotation Zrotation
							End Site
							{
								OFFSET -0.026310 0.773116 6.707275
							}
						}
					}
				}
			}
		}
	}
}
MOTION
Frames: 5
Frame Time: 0.041667
51.553001 -30.549824 84.600067 -6.651336 -0.598760 -0.692918 -0.907468 0.093151 0.027705 2.187842 0.188935 0.052999 3.832921 0.189453 0.048348 29.341420 1.702845 0.860959 13.152308 1.643230 0.576778 -4.450282 -78.039371 -6.855063 89.821844 -78.856556 98.915503 -0.000001 0.000001 0.000012 -0.037212 3.644681 -1.990805 0.000000 0.000006 -3.011610 -5.000145 -7.999932 0.000012 -11.912424 66.395804 14.350005 -25.171373 105.694541 24.891979 0.000001 -0.000001 -0.000000 -0.024738 -3.651030 1.990744 -0.000001 -0.000003 3.011609 -5.000183 7.999917 0.000004 2.481221 -176.948850 5.134322 -179.999991 0.000005 -1.190993 173.599858 -3.809185 -0.456940 0.000004 0.000003 0.064296 67.891035 6.906931 2.157066 25.456965 -7.355619 0.000010 0.074766 178.852000 -0.222490 -0.000005 -0.000004 -1.167470 -12.326517 1.932143 0.574896 0.000001 0.000006 -0.224226 70.832108 -6.864455 -2.073908 25.456950 7.355613 0.000000 
51.539799 -30.531628 84.602570 -6.631682 -0.590126 -0.661597 -0.901790 0.090318 0.027701 2.199201 0.183070 0.053182 3.844280 0.183597 0.048627 29.415408 1.752390 0.847201 13.182058 1.604141 0.572209 -4.371479 -77.997892 -6.767725 90.062991 -78.863400 99.123646 0.000000 0.000001 0.000011 -0.037213 3.644680 -1.990805 0.000001 0.000008 -3.011610 -5.000142 -7.999930 0.000012 -11.977316 66.434620 14.425339 -25.355300 105.718249 25.090604 0.000001 -0.000001 -0.000000 -0.024738 -3.651029 1.990744 -0.000001 -0.000005 3.011610 -5.000183 7.999916 0.000004 2.449709 -176.967770 5.118213 -179.999991 0.000005 -1.190993 173.598752 -3.806189 -0.456678 0.000004 0.000003 0.064296 67.890407 6.906913 2.157105 25.456962 -7.355618 0.000011 0.015334 178.838996 -0.222971 -0.000005 -0.000004 -1.167100 -12.358304 1.927776 0.576195 0.000001 0.000006 -0.224556 70.835086 -6.864463 -2.073323 25.456947 7.355611 0.000000 
51.535599 -30.508633 84.602875 -6.612180 -0.581162 -0.630721 -0.896148 0.087480 0.027696 2.210482 0.177186 0.053358 3.855560 0.177722 0.048893 29.488922 1.801710 0.833007 13.212219 1.564592 0.567494 -4.294140 -77.956671 -6.681955 90.295278 -78.867662 99.323566 0.000001 0.000001 0.000011 -0.037212 3.644681 -1.990804 0.000000 0.000008 -3.011609 -5.000145 -7.999931 0.000011 -12.045508 66.473682 14.504419 -25.538386 105.742079 25.287846 0.000001 -0.000002 -0.000000 -0.024738 -3.651030 1.990744 -0.000001 -0.000003 3.011610 -5.000182 7.999918 0.000004 2.418387 -176.986676 5.102105 -179.999991 0.000005 -1.189995 173.597632 -3.803208 -0.456420 0.000004 0.000003 0.064295 67.889779 6.906933 2.157048 25.456964 -7.355618 0.000010 -0.044056 178.823997 -0.223766 -0.000005 -0.000004 -1.166760 -12.390792 1.923512 0.577531 0.000001 0.000006 -0.224894 70.838508 -6.864472 -2.072716 25.456952 7.355613 -0.000000 
51.544498 -30.480129 84.601974 -6.592782 -0.571960 -0.600159 -0.890538 0.084637 0.027691 2.221700 0.171288 0.053532 3.866779 0.171833 0.049150 29.562254 1.850853 0.818461 13.242670 1.524699 0.562693 -4.217974 -77.915629 -6.597440 90.521071 -78.870141 99.517400 0.000000 0.000001 0.000010 -0.037213 3.644680 -1.990805 0.000001 0.000005 -3.011610 -5.000145 -7.999931 0.000012 -12.116057 66.512840 14.586166 -25.722206 105.765117 25.485526 0.000001 -0.000002 0.000000 -0.024738 -3.651030 1.990745 -0.000001 -0.000004 3.011610 -5.000183 7.999917 0.000004 2.387191 -177.005609 5.086005 -179.999991 0.000005 -1.188984 173.596470 -3.801203 -0.456274 0.000004 0.000003 0.064295 67.889143 6.906914 2.157084 25.456967 -7.355618 0.000010 -0.103420 178.810008 -0.224772 -0.000005 -0.000004 -1.166430 -12.423780 1.919303 0.578888 0.000000 0.000006 -0.225240 70.842135 -6.864481 -2.072093 25.456948 7.355613 -0.000001 
51.527302 -30.461529 84.602280 -6.573448 -0.562615 -0.569779 -0.884944 0.081792 0.027687 2.232891 0.165383 0.053703 3.877967 0.165937 0.049402 29.635416 1.899882 0.803669 13.273336 1.484629 0.557857 -4.142676 -77.874648 -6.513843 90.743277 -78.871562 99.707914 -0.000000 0.000001 0.000010 -0.037213 3.644679 -1.990804 0.000000 0.000007 -3.011610 -5.000143 -7.999930 0.000012 -12.188041 66.551970 14.669532 -25.905354 105.788306 25.682322 0.000001 -0.000001 -0.000000 -0.024738 -3.651028 1.990744 -0.000001 -0.000004 3.011610 -5.000182 7.999918 0.000004 2.356067 -177.025512 5.069878 -179.999991 0.000005 -1.188984 173.595323 -3.798223 -0.457027 0.000004 0.000003 0.064295 67.888413 6.906924 2.157133 25.456962 -7.355619 0.000012 -0.162771 178.794996 -0.225885 -0.000005 -0.000004 -1.166110 -12.457070 1.915132 0.580258 0.000001 0.000006 -0.225589 70.845857 -6.864491 -2.071466 25.456950 7.355613 -0.000000 
